<svg id="Layer_1" data-name="Layer 1" xmlns="http://www.w3.org/2000/svg" viewBox="0 0 401.02 402.04"><defs><style>.cls-1,.cls-5{fill:#1e2d3f;}.cls-1{stroke:#fff;}.cls-1,.cls-2,.cls-3,.cls-4{stroke-miterlimit:10;}.cls-1,.cls-2,.cls-4{stroke-width:2.57px;}.cls-2,.cls-3{fill:#22334c;stroke:#f8f7f8;}.cls-3{stroke-width:2.56px;}.cls-4{fill:#fff;stroke:#fcfafc;}.cls-5{font-size:45.12px;font-family:OCRAStd, OCR A Std;letter-spacing:0em;}</style></defs><title>logo</title><polygon class="cls-1" points="205.04 287.56 205.04 67.97 244.07 54.45 293.81 95.42 335.78 184.87 287.25 272.98 237.91 302.29 205.04 287.56"/><polygon class="cls-2" points="293.28 95.63 205.8 68.63 249.43 143.67 293.28 95.63"/><polygon class="cls-2" points="333.83 184.83 249.44 143.67 205.98 187.37 249.44 213.15 333.83 184.83"/><polygon class="cls-2" points="286.74 272.85 249.43 213.15 205.66 287.15 286.74 272.85"/><line class="cls-2" x1="249.43" y1="143.67" x2="249.43" y2="213.15"/><polygon class="cls-1" points="195.53 287.56 195.53 67.97 156.5 54.45 106.76 95.42 64.79 184.87 113.32 272.98 162.66 302.29 195.53 287.56"/><polygon class="cls-2" points="107.29 95.63 194.78 68.63 151.14 143.67 107.29 95.63"/><polygon class="cls-3" points="66.96 184.83 150.7 143.67 193.83 187.37 150.7 213.15 66.96 184.83"/><polygon class="cls-2" points="113.83 272.85 151.14 213.15 194.92 287.15 113.83 272.85"/><line class="cls-4" x1="151.14" y1="143.67" x2="151.14" y2="213.15"/><text class="cls-5" transform="translate(93.93 369.92) scale(0.98 1)">MEMOTHY</text></svg>